<?xml version="1.0" encoding="UTF-8"?>
<svg version="1.1" xmlns="http://www.w3.org/2000/svg" width="396" height="231">
<path d="M0 0 C0.66 0.33 1.32 0.66 2 1 C2 14.2 2 27.4 2 41 C2.99 40.67 3.98 40.34 5 40 C5.33 27.13 5.66 14.26 6 1 C14.61498159 1.66269089 23.12792729 2.41460534 31.6875 3.5 C32.75677734 3.63019531 33.82605469 3.76039062 34.92773438 3.89453125 C35.94544922 4.02214844 36.96316406 4.14976563 38.01171875 4.28125 C38.92397217 4.39533203 39.83622559 4.50941406 40.77612305 4.62695312 C43 5 43 5 45 6 C45 15.9 45 25.8 45 36 C49.723125 35.938125 54.44625 35.87625 59.3125 35.8125 C92.52089624 35.68005357 127.41984103 40.31940257 158 54 C158 54.33 158 54.66 158 55 C152.73990854 55.5806795 147.47872224 56.14973998 142.21630859 56.70898438 C140.43375438 56.89996088 138.65151182 57.09387395 136.86962891 57.29101562 C126.77800232 58.40535862 116.90108946 59.15116249 106.74755859 59.0078125 C100.66064545 58.99512317 94.62551388 59.50176232 88.5625 60 C76.97345034 60.93064533 66.44030532 61.2759871 54.9375 59.5 C51.658125 59.005 48.37875 58.51 45 58 C45 69.88 45 81.76 45 94 C32.13 94 19.26 94 6 94 C6 81.13 6 68.26 6 55 C4.515 55.495 4.515 55.495 3 56 C2.96241577 57.67340454 2.96241577 57.67340454 2.92407227 59.38061523 C2.83016579 63.5049259 2.72990486 67.6290615 2.62768555 71.75317383 C2.584273 73.5408927 2.54260271 75.32865474 2.50268555 77.11645508 C2.4451354 79.68063391 2.38139797 82.24459412 2.31640625 84.80859375 C2.29133751 86.01484657 2.29133751 86.01484657 2.26576233 87.24546814 C2.11387171 92.88612829 2.11387171 92.88612829 1 94 C-2.96 94 -6.92 94 -11 94 C-11 81.46 -11 68.92 -11 56 C-22.24873314 57.31263699 -22.24873314 57.31263699 -33.49658203 58.6328125 C-34.91696086 58.79714602 -36.33736913 58.96122531 -37.7578125 59.125 C-38.48282959 59.21136719 -39.20784668 59.29773438 -39.95483398 59.38671875 C-43.99288477 59.84868166 -47.93608303 60.08943971 -52 60 C-48.82379696 58.21972287 -45.87572601 57.43441699 -42.30859375 56.74609375 C-40.64280273 56.42415039 -40.64280273 56.42415039 -38.94335938 56.09570312 C-37.20795898 55.76989258 -37.20795898 55.76989258 -35.4375 55.4375 C-34.30763672 55.21642578 -33.17777344 54.99535156 -32.01367188 54.76757812 C-25.0211986 53.43510337 -18.10193764 52.48864487 -11 52 C-11 51.34 -11 50.68 -11 50 C-19.197945 51.35248297 -27.35178787 52.84446488 -35.48046875 54.5703125 C-36.12910385 54.70772858 -36.77773895 54.84514465 -37.44602966 54.98672485 C-40.72764555 55.68294734 -44.00694813 56.38826906 -47.28393555 57.10595703 C-49.10405151 57.49436768 -49.10405151 57.49436768 -50.9609375 57.890625 C-52.59748291 58.24688965 -52.59748291 58.24688965 -54.26708984 58.61035156 C-57 59 -57 59 -60 58 C-19.04 44 -19.04 44 -11 44 C-11 31.13 -11 18.26 -11 5 C-7.37 3.35 -3.74 1.7 0 0 Z M18 21 C17.28434464 24.14976259 17.42898917 27.10376232 17.625 30.3125 C17.74875 33.179375 17.8725 36.04625 18 39 C24.27 38.34 30.54 37.68 37 37 C37.0825 34.628125 37.165 32.25625 37.25 29.8125 C37.30462402 28.70612183 37.30462402 28.70612183 37.36035156 27.57739258 C37.41894961 24.07804975 37.05898429 22.09879207 35.2578125 19.08203125 C32.8817316 16.89093934 31.79109226 16.21938197 28.625 15.875 C27.89539063 15.76929688 27.16578125 15.66359375 26.4140625 15.5546875 C22.68929483 16.24178057 20.15637432 17.95632635 18 21 Z M18 48 C18 48.66 18 49.32 18 50 C24.27 49.67 30.54 49.34 37 49 C37 48.67 37 48.34 37 48 C30.73 48 24.46 48 18 48 Z M2 49 C2 49.66 2 50.32 2 51 C3.32 50.34 4.64 49.68 6 49 C4.68 49 3.36 49 2 49 Z M45 49 C45 49.33 45 49.66 45 50 C48.96 50 52.92 50 57 50 C57 49.67 57 49.34 57 49 C53.04 49 49.08 49 45 49 Z M57 50 C57 50.33 57 50.66 57 51 C59.97 51 62.94 51 66 51 C66 50.67 66 50.34 66 50 C63.03 50 60.06 50 57 50 Z M68 51 C68 51.33 68 51.66 68 52 C69.65 52 71.3 52 73 52 C73 51.67 73 51.34 73 51 C71.35 51 69.7 51 68 51 Z M75 52 C79 53 79 53 79 53 Z M18 56 C18 56.33 18 56.66 18 57 C23.28 57 28.56 57 34 57 C34 56.67 34 56.34 34 56 C28.72 56 23.44 56 18 56 Z " fill="#706BEE" transform="translate(184,21)"/>
<path d="M0 0 C0 0.33 0 0.66 0 1 C-5.33363577 1.57777213 -10.6680883 2.14706894 -16.00341797 2.70898438 C-17.8132282 2.90074382 -19.62280711 3.09470108 -21.43212891 3.29101562 C-36.43415249 4.91644217 -49.54789133 5.72682736 -64.375 2.1875 C-73.21856285 0.18395371 -82.00762885 -1.62496269 -91 -2.8125 C-91.83966309 -2.92376221 -92.67932617 -3.03502441 -93.54443359 -3.1496582 C-104.92110212 -4.5737212 -116.29494888 -5.1978037 -127.75 -5.5625 C-129.03132812 -5.60568359 -130.31265625 -5.64886719 -131.6328125 -5.69335938 C-134.75513066 -5.79821334 -137.87751121 -5.90038018 -141 -6 C-141 -8.97 -141 -11.94 -141 -15 C-97.43739996 -25.53933872 -40.51466756 -18.12498286 0 0 Z " fill="#5955CC" transform="translate(342,75)"/>
<path d="M0 0 C3.49971199 -0.1173794 6.99890955 -0.18763961 10.5 -0.25 C11.48226562 -0.28351563 12.46453125 -0.31703125 13.4765625 -0.3515625 C19.86770491 -0.43677773 24.69751812 0.2620241 30 4 C34.84848954 9.09713003 35.35314764 13.40371716 35.28125 20.20703125 C34.74836536 25.49887174 32.42882716 28.60877355 28.625 32.3125 C19.81890442 37.97356144 9.91494282 36.03782579 0 35 C0.99 34.34 1.98 33.68 3 33 C3.51254128 29.7998894 3.51254128 29.7998894 3.51171875 26.0234375 C3.52966995 25.33819 3.54762115 24.6529425 3.56611633 23.94692993 C3.62033708 21.75634941 3.65415053 19.5659881 3.6875 17.375 C3.72066294 15.89059441 3.75515165 14.40621779 3.79101562 12.921875 C3.87606815 9.28146088 3.94282356 5.64097056 4 2 C2.68 2 1.36 2 0 2 C0 1.34 0 0.68 0 0 Z M11 3 C10.75833337 7.1152898 10.77150725 11.23391265 10.75976562 15.35571289 C10.75005535 17.42570099 10.71904288 19.49469815 10.6875 21.56445312 C10.68234375 22.86189453 10.6771875 24.15933594 10.671875 25.49609375 C10.6625293 26.69419678 10.65318359 27.8922998 10.64355469 29.12670898 C10.76118164 30.07489502 10.87880859 31.02308105 11 32 C13.69365597 34.21499555 13.69365597 34.21499555 16.12109375 33.93359375 C20.17865281 33.06460555 22.46292144 32.52365159 25.5 29.5625 C28.75364038 24.00419768 28.71473738 18.28174742 28 12 C26.47819847 8.1102753 24.65437985 5.02192075 21.05859375 2.80078125 C18.21579746 1.69494968 13.3512009 0.6487991 11 3 Z " fill="#23245C" transform="translate(233,140)"/>
<path d="M0 0 C3.22868746 -0.14584064 6.45652365 -0.23424106 9.6875 -0.3125 C10.59951172 -0.35439453 11.51152344 -0.39628906 12.45117188 -0.43945312 C17.09892781 -0.52395778 19.29015336 -0.51761488 23.14453125 2.29296875 C25 5 25 5 25 8.625 C24.06579141 11.77795399 23.58725064 13.08768431 21 15 C22.4540625 15.928125 22.4540625 15.928125 23.9375 16.875 C27 19 27 19 28 21 C28.57268722 27.98678414 28.57268722 27.98678414 26.375 31.875 C22.4559397 35.38152764 18.63011946 36.16608662 13.4765625 35.9765625 C11.85855334 35.87132613 10.2412968 35.75389129 8.625 35.625 C7.37783203 35.53992188 7.37783203 35.53992188 6.10546875 35.453125 C4.06955124 35.3127169 2.03464157 35.15782335 0 35 C0.99 34.34 1.98 33.68 3 33 C3.51254128 29.7998894 3.51254128 29.7998894 3.51171875 26.0234375 C3.52966995 25.33819 3.54762115 24.6529425 3.56611633 23.94692993 C3.62033708 21.75634941 3.65415053 19.5659881 3.6875 17.375 C3.72066294 15.89059441 3.75515165 14.40621779 3.79101562 12.921875 C3.87606815 9.28146088 3.94282356 5.64097056 4 2 C2.68 2 1.36 2 0 2 C0 1.34 0 0.68 0 0 Z M11 2 C11 6.29 11 10.58 11 15 C15.86132495 14.50847518 15.86132495 14.50847518 18 12 C19.1352535 8.76889389 19.16071632 7.4017908 17.875 4.1875 C17.25625 3.465625 16.6375 2.74375 16 2 C14.35 2 12.7 2 11 2 Z M12 17 C10.60843516 18.16277032 10.60843516 18.16277032 10.90234375 21.37890625 C10.90901631 22.77347077 10.92097468 24.16801743 10.9375 25.5625 C10.94201172 26.27341797 10.94652344 26.98433594 10.95117188 27.71679688 C10.96299136 29.47790013 10.98092737 31.23896036 11 33 C16.32170494 33.29562367 16.32170494 33.29562367 21 31 C22.36169046 27.59577384 21.96997586 25.88928597 21 22.3125 C19.25992372 18.66954959 19.25992372 18.66954959 15.3125 17.5625 C14.219375 17.376875 13.12625 17.19125 12 17 Z " fill="#23255B" transform="translate(135,140)"/>
<path d="M0 0 C3.22899426 -0.0875127 6.45768116 -0.14056146 9.6875 -0.1875 C11.05551758 -0.22520508 11.05551758 -0.22520508 12.45117188 -0.26367188 C21.04675312 -0.35744185 21.04675312 -0.35744185 25 3 C26.56632144 6.52422323 25.98282415 8.05152755 24.75 11.75 C23 15 23 15 20 16 C26.68069665 26.92837374 26.68069665 26.92837374 37 34 C37 34.33 37 34.66 37 35 C32.78444065 35.77035602 29.18849562 36.00824865 25 35 C21.20118876 31.42944351 18.67580369 27.48167121 16 23 C14.36526484 19.87525373 14.36526484 19.87525373 11.875 19.3125 C11.25625 19.209375 10.6375 19.10625 10 19 C10.08678763 21.29239061 10.19495273 23.5839807 10.3125 25.875 C10.37050781 27.15117187 10.42851562 28.42734375 10.48828125 29.7421875 C10.65714844 30.81726563 10.82601562 31.89234375 11 33 C11.99 33.66 12.98 34.32 14 35 C9.05 35 4.1 35 -1 35 C0.32 34.34 1.64 33.68 3 33 C3 23.1 3 13.2 3 3 C2.01 2.67 1.02 2.34 0 2 C0 1.34 0 0.68 0 0 Z M10 3 C9.92741054 5.18639453 9.91626217 7.37500389 9.9375 9.5625 C9.94652344 10.76003906 9.95554688 11.95757812 9.96484375 13.19140625 C9.97644531 14.11824219 9.98804688 15.04507813 10 16 C13.41642759 16.25015873 13.41642759 16.25015873 17 16 C19.53637054 12.19544419 19.59473663 9.46052469 19 5 C17.97578739 2.89061215 17.97578739 2.89061215 16 2 C12.70693316 1.50904853 12.70693316 1.50904853 10 3 Z " fill="#23255C" transform="translate(171,140)"/>
<path d="M0 0 C1.60725635 3.21451269 1.05748185 6.43612536 1 10 C0.34 10 -0.32 10 -1 10 C-4 5.61538462 -4 5.61538462 -4 3 C-10.65928129 1.13654473 -10.65928129 1.13654473 -17.375 2 C-21.44222323 5.09883675 -23.63668943 7.58585222 -24.41796875 12.77734375 C-24.70787785 18.99080089 -24.00849373 23.32090732 -20.484375 28.4765625 C-18.10175738 30.92188059 -16.04702514 31.91332573 -12.640625 32.1953125 C-11.85171875 32.17210937 -11.0628125 32.14890625 -10.25 32.125 C-9.45078125 32.10695312 -8.6515625 32.08890625 -7.828125 32.0703125 C-7.22484375 32.04710937 -6.6215625 32.02390625 -6 32 C-5.835 30.72125 -5.67 29.4425 -5.5 28.125 C-5.36078125 27.04605469 -5.36078125 27.04605469 -5.21875 25.9453125 C-4.9627515 23.99501656 -4.9627515 23.99501656 -5 22 C-6.65 22 -8.3 22 -10 22 C-10 21.34 -10 20.68 -10 20 C-5.38 20 -0.76 20 4 20 C4 20.66 4 21.32 4 22 C3.34 22 2.68 22 2 22 C2 25.96 2 29.92 2 34 C-6.60266747 35.60809741 -16.5711724 36.98779626 -24.3828125 32.27734375 C-27.98835819 29.4294852 -30.52717297 26.41848108 -32 22 C-32.49914836 16.7875819 -32.67229146 12.39629765 -30.375 7.625 C-21.77996077 -1.8747802 -12.32523522 -4.43708468 0 0 Z " fill="#22245C" transform="translate(308,141)"/>
<path d="M0 0 C8.25 0 16.5 0 25 0 C25 2.97 25 5.94 25 9 C24.01 8.01 23.02 7.02 22 6 C22 5.34 22 4.68 22 4 C20.52168779 3.80587819 19.04230684 3.61987869 17.5625 3.4375 C16.73878906 3.33308594 15.91507812 3.22867188 15.06640625 3.12109375 C14.38449219 3.08113281 13.70257813 3.04117188 13 3 C11.18884044 4.81115956 11.61800552 7.61278227 11.4375 10.0625 C11.35371094 11.16722656 11.26992188 12.27195313 11.18359375 13.41015625 C11.12300781 14.26480469 11.06242187 15.11945313 11 16 C12.48117801 15.71872579 13.95993249 15.42466268 15.4375 15.125 C16.67306641 14.88136719 16.67306641 14.88136719 17.93359375 14.6328125 C18.61550781 14.42398438 19.29742187 14.21515625 20 14 C20.33 13.34 20.66 12.68 21 12 C21.66 12 22.32 12 23 12 C23 15.63 23 19.26 23 23 C22.34 23 21.68 23 21 23 C20.67 22.01 20.34 21.02 20 20 C17.89415562 19.19436362 17.89415562 19.19436362 15.4375 18.8125 C13.973125 18.544375 12.50875 18.27625 11 18 C11.33 22.62 11.66 27.24 12 32 C17.64634999 32.57770452 17.64634999 32.57770452 22.4375 30.125 C24.02417441 28.09294454 24.02417441 28.09294454 25 26 C25.66 26 26.32 26 27 26 C26.67 28.97 26.34 31.94 26 35 C17.42 35 8.84 35 0 35 C1.32 34.34 2.64 33.68 4 33 C4 23.1 4 13.2 4 3 C2.68 2.34 1.36 1.68 0 1 C0 0.67 0 0.34 0 0 Z " fill="#23255C" transform="translate(318,140)"/>
<path d="M0 0 C0.66 0 1.32 0 2 0 C2 0.66 2 1.32 2 2 C6.43775675 1.86138974 10.87512777 1.71288136 15.3125 1.5625 C16.57513672 1.52318359 17.83777344 1.48386719 19.13867188 1.44335938 C20.34716797 1.40146484 21.55566406 1.35957031 22.80078125 1.31640625 C23.91622314 1.27974854 25.03166504 1.24309082 26.1809082 1.20532227 C29.07873571 1.11068791 29.07873571 1.11068791 32 0 C31.67 4.29 31.34 8.58 31 13 C29 12 29 12 27.75 9 C26.88375 7.515 26.88375 7.515 26 6 C23.03 5.505 23.03 5.505 20 5 C20 14.9 20 24.8 20 35 C21.32 35.66 22.64 36.32 24 37 C18.39 37 12.78 37 7 37 C8.32 36.34 9.64 35.68 11 35 C11 25.1 11 15.2 11 5 C5.31717397 5.30523714 5.31717397 5.30523714 3.5390625 7.62890625 C3.08660156 8.58603516 3.08660156 8.58603516 2.625 9.5625 C2.08875 10.696875 1.5525 11.83125 1 13 C0.34 12.34 -0.32 11.68 -1 11 C-0.9765625 8.3984375 -0.9765625 8.3984375 -0.625 5.375 C-0.51414062 4.37210938 -0.40328125 3.36921875 -0.2890625 2.3359375 C-0.19367188 1.56507813 -0.09828125 0.79421875 0 0 Z " fill="#23255C" transform="translate(81,138)"/>
<path d="M0 0 C4.95 0 9.9 0 15 0 C15 0.66 15 1.32 15 2 C13.68 2 12.36 2 11 2 C11.06876343 6.37882456 11.15667083 10.75671521 11.26245117 15.13476562 C11.29573463 16.62456572 11.32375597 18.11449295 11.34643555 19.60449219 C11.37992071 21.74469252 11.43222789 23.88372419 11.48828125 26.0234375 C11.51446533 27.31169434 11.54064941 28.59995117 11.56762695 29.92724609 C11.71031006 30.94125488 11.85299316 31.95526367 12 33 C12.99 33.66 13.98 34.32 15 35 C10.05 35 5.1 35 0 35 C0.99 34.34 1.98 33.68 3 33 C3.51254128 29.7998894 3.51254128 29.7998894 3.51171875 26.0234375 C3.52966995 25.33819 3.54762115 24.6529425 3.56611633 23.94692993 C3.62033708 21.75634941 3.65415053 19.5659881 3.6875 17.375 C3.72066294 15.89059441 3.75515165 14.40621779 3.79101562 12.921875 C3.87606815 9.28146088 3.94282356 5.64097056 4 2 C2.68 2 1.36 2 0 2 C0 1.34 0 0.68 0 0 Z " fill="#23265C" transform="translate(212,140)"/>
<path d="M0 0 C4.95 0 9.9 0 15 0 C15 0.66 15 1.32 15 2 C13.68 2 12.36 2 11 2 C11.06876343 6.37882456 11.15667083 10.75671521 11.26245117 15.13476562 C11.29573463 16.62456572 11.32375597 18.11449295 11.34643555 19.60449219 C11.37992071 21.74469252 11.43222789 23.88372419 11.48828125 26.0234375 C11.51446533 27.31169434 11.54064941 28.59995117 11.56762695 29.92724609 C11.71031006 30.94125488 11.85299316 31.95526367 12 33 C12.99 33.66 13.98 34.32 15 35 C10.05 35 5.1 35 0 35 C0.99 34.34 1.98 33.68 3 33 C3.51254128 29.7998894 3.51254128 29.7998894 3.51171875 26.0234375 C3.52966995 25.33819 3.54762115 24.6529425 3.56611633 23.94692993 C3.62033708 21.75634941 3.65415053 19.5659881 3.6875 17.375 C3.72066294 15.89059441 3.75515165 14.40621779 3.79101562 12.921875 C3.87606815 9.28146088 3.94282356 5.64097056 4 2 C2.68 2 1.36 2 0 2 C0 1.34 0 0.68 0 0 Z " fill="#23265C" transform="translate(59,140)"/>
<path d="M0 0 C0 1.98 0 3.96 0 6 C-0.89074219 6.14695312 -1.78148437 6.29390625 -2.69921875 6.4453125 C-9.99192984 7.68007734 -17.24426083 9.03395102 -24.48046875 10.5703125 C-25.12910385 10.70772858 -25.77773895 10.84514465 -26.44602966 10.98672485 C-29.72764555 11.68294734 -33.00694813 12.38826906 -36.28393555 13.10595703 C-37.49734619 13.36489746 -38.71075684 13.62383789 -39.9609375 13.890625 C-41.05196777 14.12813477 -42.14299805 14.36564453 -43.26708984 14.61035156 C-46 15 -46 15 -49 14 C-8.04 0 -8.04 0 0 0 Z " fill="#5955CC" transform="translate(173,65)"/>
<path d="M0 0 C4.59037956 1.14759489 5.33669182 2.29039218 8 6 C8 4.02 8 2.04 8 0 C9.65 0.33 11.3 0.66 13 1 C12.01 1.495 12.01 1.495 11 2 C11 5.63 11 9.26 11 13 C8.69 11.02 6.38 9.04 4 7 C4 8.98 4 10.96 4 13 C2.68 13 1.36 13 0 13 C0 8.71 0 4.42 0 0 Z " fill="#555555" transform="translate(165,193)"/>
<path d="M0 0 C2.37948772 0.17625835 3.70225849 0.69719773 5.37890625 2.40234375 C6.62115486 3.90649092 7.81376056 5.45129851 9 7 C9.33 5.35 9.66 3.7 10 2 C9.34 1.67 8.68 1.34 8 1 C9.65 0.67 11.3 0.34 13 0 C12.67 4.29 12.34 8.58 12 13 C7.9915966 10.9957983 6.58590343 9.50944037 4 6 C3.67 7.65 3.34 9.3 3 11 C3.66 11 4.32 11 5 11 C5 11.66 5 12.32 5 13 C3.35 13 1.7 13 0 13 C0.33 12.01 0.66 11.02 1 10 C1.13156527 6.31617231 1.16982138 3.50946415 0 0 Z " fill="#555555" transform="translate(243,193)"/>
<path d="M0 0 C0.33 1.32 0.66 2.64 1 4 C0.030625 3.814375 -0.93875 3.62875 -1.9375 3.4375 C-2.948125 3.293125 -3.95875 3.14875 -5 3 C-6.29633621 4.06645115 -6.29633621 4.06645115 -6.0625 6.5625 C-6.041875 7.366875 -6.02125 8.17125 -6 9 C-3.525 9.99 -3.525 9.99 -1 11 C-1.33 9.35 -1.66 7.7 -2 6 C-0.68 6 0.64 6 2 6 C2 7.98 2 9.96 2 12 C-4.14070352 13.18090452 -4.14070352 13.18090452 -7.375 12.5 C-9 11 -9 11 -9.9375 7.5625 C-10 4 -10 4 -8.6875 2.125 C-5.6118563 0.07457087 -3.67112072 -0.09660844 0 0 Z " fill="#575757" transform="translate(269,193)"/>
<path d="M0 0 C1.98 0 3.96 0 6 0 C6 0.66 6 1.32 6 2 C5.34 2 4.68 2 4 2 C4.18129815 5.43793339 4.18129815 5.43793339 5 9 C6.32 9.66 7.64 10.32 9 11 C9.33 8.03 9.66 5.06 10 2 C9.34 2 8.68 2 8 2 C8 1.34 8 0.68 8 0 C9.65 0 11.3 0 13 0 C12.91266424 1.60517097 12.80447776 3.20921662 12.6875 4.8125 C12.62949219 5.70582031 12.57148438 6.59914062 12.51171875 7.51953125 C11.9293972 10.34223494 11.3451273 11.35342126 9 13 C3.56521739 12.56521739 3.56521739 12.56521739 2 11 C1.92820036 9.48071962 1.91607993 7.95832518 1.9375 6.4375 C1.94652344 5.61121094 1.95554688 4.78492188 1.96484375 3.93359375 C1.97644531 3.29550781 1.98804688 2.65742188 2 2 C1.34 2 0.68 2 0 2 C0 1.34 0 0.68 0 0 Z " fill="#5A5A5A" transform="translate(192,193)"/>
<path d="M0 0 C1.90577288 2.32007133 2.02068737 3.57590891 1.875 6.5625 C0.7872123 9.59276574 -0.12691755 10.56345877 -3 12 C-6.19938696 11.92196617 -7.53129544 11.43745759 -9.875 9.25 C-11 7 -11 7 -10.9375 4.4375 C-8.82338424 -1.05920097 -5.37344981 -1.7522119 0 0 Z M-6 1 C-8.2491908 2.82703227 -8.2491908 2.82703227 -8.25 5.5 C-8.2491908 8.17296773 -8.2491908 8.17296773 -6 10 C-3.21762345 9.59471099 -3.21762345 9.59471099 -1 8 C-0.7499227 5.54190002 -0.7499227 5.54190002 -1 3 C-1.66 2.34 -2.32 1.68 -3 1 C-3.99 1 -4.98 1 -6 1 Z " fill="#525252" transform="translate(159,194)"/>
<path d="M0 0 C2.97 0 5.94 0 9 0 C9.33 0.66 9.66 1.32 10 2 C9.34 2.66 8.68 3.32 8 4 C8 3.34 8 2.68 8 2 C7.34 2 6.68 2 6 2 C6.33 5.63 6.66 9.26 7 13 C5.35 13 3.7 13 2 13 C2 9.7 2 6.4 2 3 C1.01 3 0.02 3 -1 3 C-0.67 2.01 -0.34 1.02 0 0 Z " fill="#545454" transform="translate(221,193)"/>
<path d="M0 0 C-0.33 0.99 -0.66 1.98 -1 3 C-1.78375 2.835 -2.5675 2.67 -3.375 2.5 C-5.88208039 1.9376293 -5.88208039 1.9376293 -8 2 C-7.67 3.98 -7.34 5.96 -7 8 C-3.71303767 8.79953138 -2.28976808 9.09658936 1 8 C0.67 8.99 0.34 9.98 0 11 C-3.45208918 11.88309258 -5.47296338 12.18331708 -8.875 11 C-11 9 -11 9 -11.625 5.5 C-11 2 -11 2 -8.875 0 C-5.47296338 -1.18331708 -3.45208918 -0.88309258 0 0 Z " fill="#545454" transform="translate(144,194)"/>
<path d="M0 0 C-0.33 0.99 -0.66 1.98 -1 3 C-1.99 2.34 -2.98 1.68 -4 1 C-3.154375 1.721875 -2.30875 2.44375 -1.4375 3.1875 C1 6 1 6 0.8125 8.8125 C0.4103125 9.8953125 0.4103125 9.8953125 0 11 C-2.375 11.625 -2.375 11.625 -5 12 C-5.66 11.34 -6.32 10.68 -7 10 C-7 9.01 -7 8.02 -7 7 C-6.34 7 -5.68 7 -5 7 C-4.67 7.66 -4.34 8.32 -4 9 C-3.34 8.67 -2.68 8.34 -2 8 C-3.65 6.35 -5.3 4.7 -7 3 C-6.67 2.01 -6.34 1.02 -6 0 C-3.50907189 -1.24546405 -2.58919267 -0.7767578 0 0 Z " fill="#525252" transform="translate(188,194)"/>
<path d="M0 0 C1.65 0 3.3 0 5 0 C5.33 0.66 5.66 1.32 6 2 C5.34 2 4.68 2 4 2 C4 4.97 4 7.94 4 11 C5.65 10.34 7.3 9.68 9 9 C9 10.32 9 11.64 9 13 C6.03 13 3.06 13 0 13 C0 12.34 0 11.68 0 11 C0.66 11 1.32 11 2 11 C2 8.03 2 5.06 2 2 C1.34 2 0.68 2 0 2 C0 1.34 0 0.68 0 0 Z " fill="#525252" transform="translate(208,193)"/>
<path d="M0 0 C0 2.97 0 5.94 0 9 C-1.65 9 -3.3 9 -5 9 C-5 6.36 -5 3.72 -5 1 C-1.125 0 -1.125 0 0 0 Z " fill="#5A56CD" transform="translate(190,61)"/>
<path d="M0 0 C1.65 0 3.3 0 5 0 C5 4.29 5 8.58 5 13 C3.35 13 1.7 13 0 13 C0 12.34 0 11.68 0 11 C0.66 11 1.32 11 2 11 C2 8.03 2 5.06 2 2 C1.34 2 0.68 2 0 2 C0 1.34 0 0.68 0 0 Z " fill="#595959" transform="translate(234,193)"/>
<path d="M0 0 C1.65 0 3.3 0 5 0 C4.93999894 1.6260287 4.8512115 3.25101549 4.75 4.875 C4.70359375 5.77992188 4.6571875 6.68484375 4.609375 7.6171875 C4.40828125 8.40351563 4.2071875 9.18984375 4 10 C2.02 10.99 2.02 10.99 0 12 C0.66 8.7 1.32 5.4 2 2 C1.34 2 0.68 2 0 2 C0 1.34 0 0.68 0 0 Z " fill="#505050" transform="translate(200,193)"/>
<path d="M0 0 C0.33 0 0.66 0 1 0 C1.268125 1.134375 1.53625 2.26875 1.8125 3.4375 C2.4003125 5.2009375 2.4003125 5.2009375 3 7 C3.99 7.33 4.98 7.66 6 8 C6 8.66 6 9.32 6 10 C2.92468444 9.66753345 1.38167494 9.36895244 -0.875 7.1875 C-2 5 -2 5 -1.75 2.8125 C-1 1 -1 1 0 0 Z " fill="#585858" transform="translate(150,196)"/>
<path d="M0 0 C2 1 2 1 2 1 Z " fill="#7272EA" transform="translate(130,81)"/>
</svg>
